<svg xmlns="http://www.w3.org/2000/svg" viewBox="0 0 128 160" width="128" height="160">
  <polyline
    points="39.65,73.86 39.65,73.66 39.45,73.24 38.83,72.62 38.42,72.42 38.42,72.01 38.21,72.01 37.38,71.18 36.97,70.97 36.77,70.56 35.94,69.74 35.73,69.32 35.32,69.12 35.12,68.70 34.70,68.29 34.50,67.88 34.08,67.47 33.88,66.85 33.46,66.43 33.26,65.82 32.85,64.99 32.64,64.78 32.64,64.58 32.23,63.75 32.23,63.55 32.02,63.13 32.02,62.31 31.81,62.10 31.81,60.25 32.02,59.83 32.02,59.63 32.23,59.21 32.43,58.59 32.64,58.18 32.64,57.77 33.46,56.12 33.88,55.91 34.08,55.50 34.29,55.29 34.70,54.67 35.32,54.26 36.15,53.44 36.56,53.23 36.77,53.02 38.00,52.40 38.42,52.40 38.83,52.20 39.45,51.99 39.86,51.79 40.48,51.79 41.10,51.58 43.37,51.58 43.99,51.79 43.99,51.99 44.19,51.99 45.02,52.82 45.43,53.02 45.64,53.44 45.84,53.64 46.05,54.26 46.26,54.47 46.26,54.88 46.46,55.09 46.67,55.50 46.67,56.12 46.88,56.53 46.88,57.15 47.08,57.77 47.08,58.59 47.29,59.01 47.29,64.99 47.08,65.40 47.08,65.61 46.88,66.02 46.88,66.23 46.67,66.43 46.67,66.64 46.46,66.85 46.46,67.05 46.26,67.47 45.84,67.88 45.84,68.09 45.43,68.50 45.43,68.70 44.61,69.53 44.61,69.74 44.19,70.15 44.19,70.35 43.99,70.35 43.99,70.56 43.78,70.77 43.78,70.97 43.57,70.97 43.57,71.18 43.37,71.18 43.37,71.39 43.16,71.39 43.16,71.59 41.92,72.83 41.92,73.04 41.72,73.04 41.72,73.24 41.51,73.45 41.51,73.66 41.30,73.66 41.30,73.86 41.10,73.86 41.10,74.07 40.89,74.07 40.89,74.27 40.69,74.27 40.69,74.48 40.07,74.48"
    stroke="#ec5436" fill="none" stroke-width="2" stroke-linecap="round" />
  <polyline
    points="40.27,74.69 40.27,75.72 40.48,76.54 40.48,77.58 40.69,78.19 40.89,79.02 41.10,79.43 41.10,80.26 41.30,80.67 41.30,81.50 41.51,81.91 41.51,82.53 41.72,82.94 41.72,97.79 41.92,98.41 42.13,99.24 42.13,99.86 42.34,100.68 42.34,101.72 42.54,102.13 42.75,102.75 42.75,103.16 43.16,103.78 43.78,105.02 44.19,105.43 44.19,105.64 44.40,106.05 44.61,106.25 44.61,106.46 45.23,107.08 45.23,107.29 45.43,107.29 45.43,107.70 45.84,108.11 45.84,108.73 46.05,109.14 46.05,109.56 46.26,109.97 46.26,111.00 46.46,111.41 46.46,112.24 46.67,113.06 46.67,114.30 46.88,114.71 46.88,116.98 47.08,117.60 47.08,119.46"
    stroke="#ec5436" fill="none" stroke-width="2" stroke-linecap="round" />
  <polyline
    points="61.11,69.94 61.11,69.74 60.49,67.88 60.08,67.26 59.87,66.43 59.46,65.61 58.43,62.51 58.22,62.10 58.02,61.90 58.02,61.28 57.81,60.86 57.81,60.45 57.60,60.04 57.60,59.42 57.40,59.01 57.40,58.18 57.19,57.15 57.19,53.44 57.40,53.02 57.60,52.20 58.02,51.37 58.43,50.75 58.64,50.34 59.05,49.93 59.25,49.10 60.49,47.87 60.70,47.45 60.91,47.45 61.11,47.25 66.68,47.25 67.51,47.66 68.13,48.07 68.54,48.28 68.95,48.69 69.16,49.10 69.57,49.72 69.98,50.14 70.19,50.55 70.60,50.96 71.01,51.79 71.22,52.40 71.63,52.61 71.84,53.02 71.84,53.64 72.25,53.85 72.46,54.47 73.08,55.71 73.49,56.94 73.70,57.36 73.70,63.55 73.49,63.75 73.49,63.96 73.08,64.37 72.67,64.58 71.84,65.40 71.43,65.61 70.81,66.23 70.40,66.43 70.19,66.43 69.98,66.64 69.57,66.64 69.36,66.85 68.75,66.85 68.54,67.05 68.33,67.05 67.92,67.26 67.30,67.88 67.09,67.88 66.89,68.09 66.68,68.09 66.48,68.29 66.06,68.29 66.06,68.50 65.65,68.50 65.44,68.70 65.24,68.70 65.03,68.91 64.83,68.91 64.62,69.12 64.41,69.12 64.21,69.32 63.79,69.32 63.59,69.53 63.38,69.53 62.97,69.94 62.56,69.94 62.56,70.15 62.35,70.15 62.14,70.35 61.94,70.35 61.94,70.56 61.73,70.56 61.52,70.77 61.52,72.42 61.32,72.83 61.32,78.40 61.52,78.81 61.52,79.43 61.73,79.85 62.14,80.26 62.35,80.67 63.79,82.11 64.00,82.53 64.41,82.94 64.83,83.56 65.03,83.97 65.44,84.38 65.65,84.80 65.86,85.00 66.06,85.62 66.27,86.03 66.27,86.45 66.48,87.07 66.68,87.48 66.68,88.10 66.89,88.51 66.89,96.56 66.48,97.18 66.27,97.79 65.86,98.62 65.86,99.03 65.65,99.24 65.44,99.65 65.24,99.65 65.24,100.06 64.83,100.48 64.41,101.30 64.00,101.92 63.79,102.54 63.59,102.75 63.59,103.16 63.38,103.37 63.38,103.57 63.17,103.98 63.17,106.46 63.38,106.67 63.38,107.08 63.79,107.49 63.79,107.90 64.00,107.90 64.00,108.11 64.21,108.32 64.21,108.52 64.41,108.94 64.41,109.14 64.62,109.56 64.62,109.97 65.03,110.59 65.24,111.21 65.24,111.41 65.65,112.24 65.65,112.86 65.86,113.27 65.86,114.51"
    stroke="#f7b733" fill="none" stroke-width="2" stroke-linecap="round" />
  <polyline
    points="78.44,83.77 78.44,83.56 78.03,82.73 77.82,82.53 77.41,81.29 77.20,80.88 77.00,80.26 76.79,80.05 76.79,78.61 76.59,77.99 76.59,75.93 76.79,75.72 77.00,75.10 77.41,74.69 77.62,74.27 78.03,73.66 78.24,73.24 79.06,72.42 79.68,72.01 80.51,71.59 80.92,71.18 81.33,70.97 81.95,70.77 82.77,70.35 83.39,70.35 83.81,70.15 86.28,70.15 87.11,70.56 87.93,71.39 88.14,71.80 88.55,72.21 88.76,72.62 88.76,73.04 88.96,73.24 89.17,73.66 89.17,74.07 89.38,74.48 89.38,75.31 89.58,75.93 89.58,76.54 89.79,76.96 89.79,79.02 89.58,79.43 89.58,79.85 89.17,80.26 88.96,80.67 88.35,81.29 87.93,81.50 87.73,81.70 87.11,82.11 86.28,82.53 85.87,82.94 83.81,83.97 81.12,83.97 80.92,84.18 80.51,84.18 80.51,84.38 80.09,84.38 80.09,84.59 79.27,84.59 79.27,84.80 79.06,85.21 79.06,85.62 78.85,86.24 78.85,86.86 78.65,87.27 78.65,91.40 78.85,92.02 78.85,92.64 79.27,93.87 79.27,94.49 79.47,95.11 80.51,97.18 80.71,97.79 80.92,98.21 81.12,98.83 81.33,99.24 81.54,99.86 81.95,100.89 81.95,101.51 82.16,102.13 82.36,102.54 82.36,103.16 82.57,103.78 82.57,108.11 82.36,108.94 82.16,109.56 82.16,109.97 81.54,111.21 81.12,111.62 80.92,112.03 80.51,112.44 80.51,116.57 80.71,117.40 80.71,118.01 81.12,119.25 81.12,119.87 81.33,120.49 81.74,121.11 82.16,121.93 82.36,122.55 82.36,122.76 82.57,123.17 82.77,123.38 82.77,123.79 82.98,124.20 82.98,124.62 83.19,125.03 83.19,125.24 83.39,125.65 83.39,126.27 83.60,126.47"
    stroke="#ec5436" fill="none" stroke-width="2" stroke-linecap="round" />
  <polyline
    points="27.07,45.80 27.07,44.56 27.28,42.91 27.48,41.47 27.89,39.82 27.89,38.99 28.10,38.58 28.10,36.31 27.89,35.90 27.69,35.69 27.28,34.87 27.07,34.66 26.24,34.25 25.62,34.04 24.39,33.42 23.97,33.42 23.56,33.22 21.50,33.22 21.29,33.42 21.09,33.42 20.88,33.63 20.67,33.63 20.67,33.84 20.26,34.25 20.26,34.46 20.05,34.87 20.05,35.07 19.85,35.28 19.85,35.69 19.64,35.90 19.64,36.31 19.44,36.52 19.44,42.71 19.85,43.33 20.26,43.74 20.88,44.77 21.09,45.39 22.53,46.83 24.39,46.83 25.01,46.22 25.21,46.22 25.21,46.01 25.42,46.01 25.42,45.80 25.62,45.80 25.83,45.60 25.83,45.18 26.04,45.18 26.04,44.98 26.24,44.98 26.24,44.77 26.45,44.77 26.45,44.56 26.66,44.56 26.66,44.36"
    stroke="#f7b733" fill="none" stroke-width="2" stroke-linecap="round" />
  <polyline
    points="23.97,46.83 23.97,46.63 23.97,47.25 23.77,47.87 23.77,48.48 23.56,49.31 23.56,52.40 23.77,53.23 23.97,53.64 24.18,54.26 24.39,54.47 24.59,54.88 24.80,55.09 25.01,55.50 25.42,55.91 25.42,56.32 25.62,56.74 25.62,59.01 25.42,59.42 25.42,59.83 25.01,60.25 24.80,60.25 23.97,61.07 23.97,61.28 23.77,61.48 23.56,61.90 23.36,62.10 23.36,62.31 23.15,62.72 23.15,64.58 23.36,64.78 23.56,65.20 23.77,65.40 23.77,65.61 23.97,66.02 23.97,66.43 24.39,67.26 24.59,68.09 24.80,68.50 25.01,69.12 25.21,69.53 25.21,69.74 25.42,69.94 25.42,70.35 25.62,70.35"
    stroke="#f7b733" fill="none" stroke-width="2" stroke-linecap="round" />
  <polyline
    points="73.49,28.47 73.08,28.47 72.87,28.68 72.46,28.88 72.25,29.09 72.25,29.30 72.05,29.50 71.63,30.33 71.63,30.54 71.43,31.36 71.43,33.63 71.63,34.04 72.05,34.66 72.25,34.87 73.08,35.28 73.70,35.49 76.17,35.49 77.00,35.07 77.62,34.87 77.82,34.87 78.03,34.66 78.24,34.66 78.24,34.46 78.44,34.46 78.44,31.77 78.24,31.36 78.24,31.15 78.03,30.95 78.03,30.74 77.82,30.54 77.82,30.33 77.41,29.92 77.41,29.50 76.17,28.27 75.97,28.27 75.76,28.06 75.55,28.06 75.35,27.85 75.14,27.85 74.93,27.65 73.90,27.65"
    stroke="#ec5436" fill="none" stroke-width="2" stroke-linecap="round" />
  <polyline
    points="74.52,35.69 74.52,36.93 74.32,37.34 74.11,37.96 74.11,41.06 74.32,41.68 74.73,42.50 74.73,42.71 75.76,43.74 75.76,43.95 76.38,44.56 76.59,44.98 76.79,45.18 76.79,45.39 77.00,45.80 77.20,46.01 77.20,48.90 77.00,49.10 77.00,49.52 76.79,49.72 76.79,50.34"
    stroke="#ec5436" fill="none" stroke-width="2" stroke-linecap="round" />
  <polyline
    points="39.86,16.71 39.65,16.71 39.65,17.12 39.45,17.54 39.24,18.36 39.24,18.77 39.04,19.39 39.04,27.65 39.45,28.88 39.86,29.92 40.27,30.74 40.69,31.36 41.51,31.98 42.13,32.39 42.54,32.60 43.16,32.80 44.81,33.22 47.91,33.22 49.56,33.01 50.38,32.80 52.45,31.77 53.48,30.74 53.89,29.92 53.89,27.85 53.68,27.23 53.27,26.41 53.07,25.79 53.07,25.38 52.86,24.35 52.45,23.52 52.24,23.31 52.24,22.90 52.03,22.70 51.83,22.28 51.21,21.66 51.00,21.25 50.38,20.63 49.97,20.01 49.15,19.19 48.53,18.98 48.11,18.57 47.49,18.36 46.67,17.95 46.46,17.74 45.84,17.33 45.43,17.33 44.19,16.71 43.99,16.51 43.57,16.30 43.16,16.30 42.75,16.09 42.34,16.09 41.92,15.89 41.51,15.89 41.30,15.68 40.07,15.68"
    stroke="#ec5436" fill="none" stroke-width="2" stroke-linecap="round" />
  <polyline
    points="46.88,33.63 46.88,35.49 47.08,37.55 47.29,38.79 47.70,41.68 47.91,42.71 48.11,44.15 48.32,45.39 48.32,46.42 48.73,47.25 48.94,47.87 49.15,48.90 49.35,49.52 49.76,50.34 49.97,50.55 49.97,50.96 50.59,52.20 50.80,52.82 51.00,53.64 51.41,54.88 51.41,55.50 51.62,55.91 51.62,56.53 51.83,56.74 51.83,58.39 52.03,58.80 52.03,64.37 52.24,64.78 52.24,68.09 52.03,68.29 52.03,69.12 51.83,69.12 51.83,69.53 51.62,69.94 51.62,70.35 51.21,71.18 51.21,71.39 51.00,71.39 51.00,71.59 50.80,71.59 50.80,73.24"
    stroke="#ec5436" fill="none" stroke-width="2" stroke-linecap="round" />
  <polyline
    points="95.77,54.67 95.36,55.09 94.95,55.71 94.12,57.36 93.50,58.39 93.09,59.21 92.88,60.04 92.68,61.07 92.68,64.99 92.88,66.02 93.71,67.26 94.12,67.67 94.54,67.88 94.95,68.29 95.77,68.70 96.19,68.70 96.39,68.91 98.87,68.91 99.07,68.70 99.90,68.29 100.72,67.47 100.72,67.26 101.34,66.64 101.34,66.23 101.55,65.82 101.76,65.61 101.76,65.20 101.96,64.78 101.96,59.83 101.76,59.01 101.76,58.39 101.55,57.98 101.55,57.56 101.34,57.15 101.14,56.94 101.14,56.74 100.93,56.53 100.72,56.53 100.31,56.12 100.11,56.12 99.69,55.71 99.28,55.50 99.07,55.29 98.87,55.29 98.46,55.09 98.04,55.09 97.63,54.67 96.80,54.67 96.60,54.47 96.19,54.47"
    stroke="#f7b733" fill="none" stroke-width="2" stroke-linecap="round" />
  <polyline
    points="97.01,69.32 97.01,70.15 97.22,70.97 97.63,71.80 98.25,72.62 99.07,74.27 99.69,75.10 100.11,75.93 100.52,77.16 100.93,79.23 100.93,82.73 100.52,83.56 100.11,84.18 99.69,84.59 99.07,85.00 98.25,85.62 97.84,86.24 96.80,87.27 96.60,87.89 96.19,88.51 95.98,88.92 95.77,89.54 95.57,89.95 95.57,90.37 95.36,90.57 95.36,90.99 95.57,91.19 95.57,91.61 95.98,92.22 96.19,92.64 96.60,93.05 97.22,94.29 97.42,94.91 97.42,95.32 97.63,95.53 98.25,96.76 98.46,96.97 98.66,97.38 98.66,97.59 99.07,98.00 99.07,98.83 99.28,99.24 99.28,101.10"
    stroke="#f7b733" fill="none" stroke-width="2" stroke-linecap="round" />
  <polyline
    points="28.10,86.24 27.28,86.24 26.66,86.86 26.24,87.07 26.04,87.48 25.83,87.69 25.62,88.30 25.62,88.51 25.42,88.92 25.42,91.19 25.62,92.22 26.04,93.05 26.24,93.67 26.86,94.49 27.28,95.32 27.69,95.94 28.31,96.35 28.72,96.97 29.13,97.38 29.54,97.59 29.75,97.79 33.88,97.79 34.70,96.97 34.70,96.76 34.91,96.35 35.12,96.14 35.12,92.64 34.91,92.02 34.91,91.40 33.88,88.30 33.67,87.89 33.46,87.69 33.26,87.27 32.43,86.45 32.23,86.45 31.81,86.03 31.61,86.03 31.40,85.83 30.99,85.83 30.78,85.62 30.37,85.62 30.16,85.42 28.72,85.42 28.51,85.62 28.51,85.83 28.31,85.83"
    stroke="#f7b733" fill="none" stroke-width="2" stroke-linecap="round" />
  <polyline
    points="31.40,97.79 31.40,100.48 31.61,102.13 31.81,103.16 32.02,104.40 32.23,105.43 32.43,106.05 32.85,106.67 33.67,108.32 34.08,108.52 34.29,109.14 34.70,109.76 34.91,110.17 35.32,111.41 35.53,112.24 35.53,114.51 35.32,114.92 35.12,114.92 34.91,115.33 34.70,115.54 34.29,115.74 34.08,116.16 33.88,116.36 33.67,116.98 33.26,117.60 33.05,118.22 32.43,119.46 32.43,120.28 32.23,120.49 32.23,121.52 32.43,122.14 32.64,122.55 32.64,122.76 32.85,123.17 33.05,123.17"
    stroke="#f7b733" fill="none" stroke-width="2" stroke-linecap="round" />
</svg>