<svg xmlns="http://www.w3.org/2000/svg" viewBox="0 0 128 160" width="128" height="160">
  <polyline
    points="28.72,105.84 27.89,105.84 27.48,105.64 26.45,104.60 26.04,104.40 26.04,104.19 25.62,103.98 25.62,103.57 25.21,103.37 25.21,103.16 24.80,102.75 24.80,102.54 24.59,102.33 24.59,101.92 24.39,101.72 24.18,101.30 23.97,100.68 23.97,100.27 23.77,99.65 23.77,99.03 23.56,98.41 23.56,97.79 23.36,96.97 23.36,90.78 23.56,89.95 23.97,89.13 23.97,88.10 24.80,86.86 25.01,86.24 25.01,86.03 25.21,85.42 25.42,85.00 25.62,84.38 26.04,83.97 26.24,83.15 26.66,82.73 26.86,82.11 27.07,81.29 27.69,80.05 27.69,79.64 27.89,79.02 28.10,78.81 28.31,78.40 28.31,77.78 28.72,77.37 28.93,76.75 29.34,75.93 29.75,75.31 29.96,74.69 30.37,74.07 30.58,73.45 30.99,73.04 30.99,72.42 31.40,71.80 32.02,71.18 32.43,70.35 32.85,69.94 32.85,69.74 33.26,69.32 33.46,68.70 33.67,68.50 33.88,68.09 33.88,67.88 34.29,67.47 34.50,67.05 34.91,66.64 35.32,65.82 35.53,65.61 35.73,65.20 35.94,64.99 36.15,64.58 36.35,64.37 36.77,64.17 36.97,63.75 38.83,61.90 39.24,61.90 39.86,61.69 40.48,61.69 41.10,61.48 41.92,61.28 42.96,61.07 43.78,60.66 45.64,60.04 46.46,59.83 47.08,59.63 47.70,59.63 48.53,59.42 48.94,59.21 49.76,59.01 50.18,59.01 51.41,58.59 52.24,58.59 52.86,58.39 54.51,57.98 55.33,57.98 55.95,57.77 58.02,57.77 58.84,57.56 59.46,57.36 60.29,57.36 61.52,56.94 61.94,56.94 62.35,56.74 73.90,56.74 74.52,56.53 76.17,56.53 76.79,56.32 79.06,56.32 79.47,56.12 80.30,56.12 81.54,55.71 85.46,55.71 86.28,55.50 87.52,55.50 88.14,55.29 89.38,55.29 90.20,55.50 91.23,55.91 91.85,56.12 92.47,56.12 92.88,56.32 95.77,56.32 96.19,56.53 98.46,56.53 98.87,56.74 99.49,56.74 100.11,56.94 100.52,56.94 101.76,57.36 102.38,57.36 102.99,57.77 103.61,57.98 104.23,58.39 105.47,59.01 105.88,59.42 106.50,59.63 106.91,59.83 108.77,61.69 109.18,62.31 112.28,65.40 113.10,66.64 114.14,68.09 114.96,69.53 115.79,70.35 116.40,71.39 116.82,72.01 117.02,72.62 117.23,73.04 116.82,73.66 116.82,73.86 117.23,74.27 117.64,74.89 118.06,75.72 118.47,76.34 118.67,76.96 119.09,77.37 119.50,78.19 119.91,79.43 120.32,80.05 120.74,81.08 120.94,81.91 121.36,82.53 121.56,83.35 121.77,83.77 122.39,85.62 122.59,86.45 122.80,87.07 123.01,87.89 123.42,89.13 123.42,89.95 123.63,90.57 123.63,97.18 123.42,97.59 123.42,98.41 123.21,98.62 123.21,98.83 123.01,99.03 122.59,99.86 122.39,100.48 121.98,101.10 121.15,101.92 121.15,102.13 120.74,102.13 120.74,102.33 120.32,102.33 120.12,102.54 119.71,102.54 118.88,102.95 118.26,103.16 117.85,103.57 117.44,103.78 117.02,103.78 116.82,103.98 116.20,103.98 115.79,104.19 114.34,104.19 113.93,104.40 112.07,104.40 110.22,103.78 108.36,103.78 107.12,103.16 105.26,102.54 104.64,102.13 103.82,101.92 103.20,101.51 101.96,101.10 101.55,100.89 100.93,100.48 100.52,100.27 100.11,100.27 99.69,100.06 99.07,99.65 98.66,99.24 98.25,99.03 98.04,98.83 97.63,98.62 97.42,98.21 97.01,98.00 96.39,97.59 95.98,96.97 95.36,96.56 94.33,95.73 93.92,95.11 93.30,94.70 92.88,94.29 92.47,93.67 91.65,92.84 90.62,90.78 90.62,90.57 90.41,90.37 90.41,90.16 90.00,89.54 89.79,88.92 89.38,88.30 88.96,87.89 88.76,87.27 88.35,86.45 87.73,85.83 87.73,85.42 87.31,84.59 87.11,84.38 87.11,83.97 86.90,83.77 86.90,83.56 86.70,83.35 86.49,82.94 86.28,82.73 86.28,82.53 86.08,82.32 85.87,82.32 85.66,82.11 85.25,82.11 84.84,81.91 51.62,81.91 51.41,82.11 50.38,82.11 50.18,82.32 49.35,82.32 49.35,82.53 48.94,82.53 48.94,85.00 48.73,85.83 48.11,87.69 47.91,88.51 47.70,89.13 47.49,89.54 47.49,90.16 47.29,90.37 47.29,90.78 47.08,90.99 46.67,92.22 45.84,93.87 45.84,94.08 45.64,94.49 45.43,94.70 45.43,95.11 45.23,95.53 45.02,96.35 44.81,96.97 44.61,97.38 44.19,98.00 44.19,98.41 43.99,98.83 43.99,99.03 43.57,99.86 43.37,99.86 42.75,100.48 42.34,100.68 41.92,101.10 40.69,101.92 40.27,102.33 39.86,102.54 38.83,103.57 38.62,103.57 38.42,103.78 37.80,103.78 37.59,103.98 37.38,103.98 36.97,104.19 36.56,104.19 36.35,104.40 36.15,104.40 35.94,104.60 35.12,104.60 34.91,104.81 34.50,104.81 34.29,105.02 34.08,105.02 34.08,105.22 33.88,105.22 33.67,105.43 33.05,105.43 32.85,105.64 32.43,105.64 32.23,105.84 31.81,105.84 31.61,106.05 30.37,106.05 30.37,106.25 29.34,106.25"
    stroke="#ec5436" fill="none" stroke-width="2" stroke-linecap="round" />
  <polyline
    points="40.69,66.64 40.07,66.64 39.86,66.85 39.86,67.47 39.45,68.09 39.24,68.70 38.83,69.53 38.42,70.15 38.00,71.80 38.00,73.66 38.21,74.07 38.21,74.27 38.42,74.69 38.83,75.10 39.04,75.51 39.24,75.72 40.07,76.13 40.27,76.34 40.89,76.54 41.30,76.75 41.72,76.75 42.34,76.96 46.05,76.96 46.46,76.54 46.88,76.34 47.49,75.72 47.91,74.89 48.11,74.69 48.32,74.27 48.53,74.07 48.53,73.24 48.73,72.42 48.73,69.74 48.32,68.91 48.11,68.70 47.49,67.47 47.08,67.26 46.67,66.85 46.67,66.64 46.26,66.64 45.84,66.23 45.64,66.23 45.43,66.02 45.02,66.02 44.81,65.82 44.61,65.82 44.40,65.61 43.99,65.61 43.78,65.40 41.30,65.40 41.10,65.61"
    stroke="#ec5436" fill="none" stroke-width="2" stroke-linecap="round" />
  <polyline
    points="98.87,63.34 98.87,64.37 99.49,64.99 100.72,64.99 100.72,64.78 100.93,64.58 100.93,63.55 100.52,63.13 99.07,63.13 99.07,63.34 98.87,63.34 98.66,63.55"
    stroke="#ec5436" fill="none" stroke-width="2" stroke-linecap="round" />
  <polyline
    points="106.09,69.32 104.85,69.32 104.64,69.53 104.44,69.53 104.23,69.94 104.23,70.56 104.64,70.97 104.64,71.18 105.68,71.18 105.88,70.97 105.88,70.77 106.09,70.56 106.09,70.35 106.30,69.94 106.30,69.53 106.50,69.53 106.50,69.32 105.88,69.32"
    stroke="#ec5436" fill="none" stroke-width="2" stroke-linecap="round" />
  <polyline
    points="94.54,69.12 94.74,69.12 94.74,69.32 94.95,69.53 96.19,69.53 96.39,69.32 96.60,69.32 96.60,69.12 96.80,69.12 96.80,68.50 96.60,68.29 95.15,68.29 95.15,68.50 94.95,68.70 94.95,68.91 94.74,68.91 94.74,69.12 94.54,69.12 94.54,69.74 94.74,69.74 94.74,69.53"
    stroke="#ec5436" fill="none" stroke-width="2" stroke-linecap="round" />
  <polyline
    points="99.07,75.51 99.28,75.31 99.49,75.31 99.49,73.86 99.07,73.86 98.87,74.07 98.46,74.07 98.46,74.27 98.25,74.27 98.25,75.31 98.66,75.31 98.87,75.51 99.07,75.51 99.28,75.72 99.90,75.72 99.90,75.93 100.31,75.93 100.31,74.27"
    stroke="#ec5436" fill="none" stroke-width="2" stroke-linecap="round" />
  <polyline points="64.21,69.53 74.52,69.53" stroke="#ec5436" fill="none" stroke-width="2" stroke-linecap="round" />
  <polyline
    points="43.16,69.32 42.75,69.32 42.75,69.53 42.54,69.74 42.54,70.77 42.34,70.77 42.34,70.97 42.13,71.18 42.13,72.01 42.34,72.21 42.54,72.62 42.75,72.83 42.96,73.24 43.78,74.07 45.02,74.07 45.23,73.86 45.43,73.86 45.64,73.66 45.64,73.45 45.84,73.45 45.84,73.24 46.05,73.04 46.05,72.83 46.26,72.83 46.26,72.21 46.46,72.01 46.46,69.94 46.26,69.74 46.05,69.74 45.64,69.32 45.43,69.32 45.43,69.12 43.78,69.12 43.57,68.91 42.96,68.91"
    stroke="#ec5436" fill="none" stroke-width="2" stroke-linecap="round" />
  <polyline
    points="34.50,84.38 34.50,82.11 34.70,81.70 34.70,81.29 34.91,81.08 34.91,80.88 35.12,80.88 35.12,81.50 35.32,81.70 35.32,82.32 35.53,82.32 35.53,82.53 35.73,82.73 35.73,82.94 35.94,83.15 35.94,83.35 36.15,83.56 36.15,83.77 36.35,83.77 36.35,83.97"
    stroke="#ec5436" fill="none" stroke-width="2" stroke-linecap="round" />
  <polyline
    points="36.77,85.21 38.21,85.21 39.04,85.62 39.24,85.83 39.45,85.83 39.65,86.03 39.86,86.03 39.86,86.24 39.45,86.24 39.24,86.45 38.62,86.45 38.21,86.65 38.00,86.65 37.59,86.86 36.97,86.86 36.56,87.07 36.15,87.07 36.15,87.27 35.94,87.27 35.94,87.48 35.73,87.48 35.94,87.48 35.94,87.69 36.15,87.89 36.15,89.34 35.94,89.54 35.94,89.95 35.12,89.95 34.91,89.75 34.91,89.34 34.70,89.13 34.70,88.72 34.50,88.51 34.50,88.30 34.29,88.30 34.29,87.27 33.88,87.27 33.46,87.69 33.26,87.69 33.05,87.89 32.64,87.89 32.43,88.10 32.02,88.10 30.99,88.30 30.58,88.51 29.96,88.51 29.96,87.69 30.16,87.48 30.37,87.48 30.58,87.27 30.78,87.27 30.78,87.07 31.40,87.07 31.61,86.86 32.23,86.86 32.43,86.65 33.05,86.65 33.05,86.45 33.46,86.45 33.46,86.24 33.88,86.24 33.88,86.03 34.08,86.03 34.08,85.83 34.29,85.62 34.08,85.62"
    stroke="#ec5436" fill="none" stroke-width="2" stroke-linecap="round" />
  <polyline
    points="106.09,83.56 102.79,83.56 102.38,83.77 102.17,83.77 102.17,83.97 101.96,83.97 101.96,84.18 101.76,84.18 101.76,85.42 102.17,87.07 102.38,87.48 102.38,87.69 102.58,87.89 102.58,88.10 102.99,88.51 103.20,88.51 103.41,88.72 104.23,89.13 104.44,89.34 104.85,89.34 105.68,89.75 106.91,89.75 107.12,89.54 107.53,89.34 107.95,88.72 108.15,88.51 108.36,88.10 109.18,87.27 109.18,86.65 108.98,86.45 108.77,86.45 108.77,86.24 108.56,86.03 108.15,85.83 107.95,85.62 107.95,85.42 107.74,85.42 107.74,85.21 107.53,85.21 107.33,85.00 107.12,85.00 107.12,84.80 106.71,84.80 106.30,84.38 106.30,83.97"
    stroke="#ec5436" fill="none" stroke-width="2" stroke-linecap="round" />
  <polyline points="83.39,63.55" stroke="#ec5436" fill="none" stroke-width="2" stroke-linecap="round" />
  <polyline points="80.51,64.78 83.39,64.78" stroke="#ec5436" fill="none" stroke-width="2" stroke-linecap="round" />
  <polyline points="80.51,72.83 82.16,72.83" stroke="#ec5436" fill="none" stroke-width="2" stroke-linecap="round" />
  <polyline
    points="70.60,56.53 70.60,51.37 71.84,50.14 72.46,49.31 73.08,48.69 73.49,48.07 74.52,47.04 75.35,46.63 75.55,46.42 76.38,46.42 76.79,46.22 78.85,46.22 79.47,46.01 84.01,46.01 84.43,46.22 85.04,46.22 85.46,46.42 85.66,46.42 86.08,46.63 86.49,46.63 86.70,46.83 87.11,46.83 87.52,47.04 88.14,47.25 88.55,47.25 89.17,47.45 90.41,48.07 90.62,48.28 91.03,48.48 91.44,48.48 91.65,48.69 92.47,48.69 92.68,48.90 93.92,48.90 94.33,49.10 95.57,49.10 96.19,49.31 97.84,49.31 98.04,49.52 102.58,49.52 105.06,48.90 105.68,48.69 106.50,48.48 106.91,48.28 107.53,47.87 107.95,47.66 108.56,47.25 108.98,46.83 109.39,46.63 109.60,46.22 109.80,46.01 110.22,45.80 110.42,45.39 110.83,44.98 111.04,44.56 111.45,43.95 111.66,43.74 111.87,43.33 111.87,42.71 112.07,42.30 112.28,41.47 112.28,41.06 112.48,40.64 112.48,40.23 112.69,40.03 112.69,36.31 112.48,36.11 112.48,35.69"
    stroke="#ec5436" fill="none" stroke-width="2" stroke-linecap="round" />
</svg>