<svg xmlns="http://www.w3.org/2000/svg" viewBox="0 0 128 160" width="128" height="160">
  <polyline
    points="61.11,60.86 60.49,60.86 60.49,61.07 60.29,61.07 59.46,61.90 59.25,62.31 59.05,62.51 58.84,62.93 58.64,63.13 58.64,63.34 58.43,63.75 58.43,63.96 58.22,64.17 58.22,66.02 58.64,66.43 58.64,66.64 58.84,66.64 59.05,66.85 59.05,67.05 59.25,67.26 59.46,67.26 59.87,67.67 60.08,67.67 60.29,67.88 60.70,68.09 60.91,68.29 65.03,68.29 65.44,68.09 65.86,67.67 65.86,67.47 66.27,67.05 66.27,65.82 66.48,65.61 66.48,65.20 66.68,64.99 66.68,64.58 66.89,64.37 66.89,63.75 67.09,63.75 67.09,62.72 66.89,62.72 66.89,62.31 66.68,62.10 66.68,61.90 66.27,61.48 66.27,61.28 66.06,61.28 66.06,61.07 65.65,61.07 65.65,60.86 65.44,60.86 65.24,60.66 64.83,60.66 64.62,60.45 64.21,60.45 64.00,60.25 62.56,60.25 62.35,60.04 60.70,60.04 60.49,60.25 60.29,60.25 60.08,60.45"
    stroke="#ec5436" fill="none" stroke-width="2" stroke-linecap="round" />
  <polyline
    points="62.56,68.50 62.56,68.70 62.76,69.32 62.97,70.15 63.38,70.77 63.38,71.39 63.79,72.21 64.21,73.86 64.62,75.10 65.24,77.58 65.24,78.19 65.44,79.02 65.65,79.64 65.65,80.67 65.86,81.08 65.86,82.32 66.06,82.73 66.06,83.77 66.27,84.59 66.27,88.72 66.06,90.37 66.06,91.40 65.86,92.43 65.86,99.65 65.65,100.27 65.65,101.51 65.44,101.92 65.44,102.75 65.24,103.16 65.03,103.98 64.83,104.60 64.41,105.64 64.21,106.25 64.00,106.67 63.79,107.29 63.79,107.70 63.59,108.11 63.17,109.35 62.97,109.76 62.97,110.17 62.56,110.59 62.56,111.00 62.35,111.21 62.14,111.62 62.14,112.03 61.94,112.44 61.73,113.06 61.73,113.27 61.32,113.68 61.11,114.09 60.91,114.30 60.91,114.51 60.49,114.92 60.49,115.13 60.29,115.33 60.29,115.54 60.08,115.74 60.08,115.95 59.87,116.16 59.87,116.36 59.67,116.36 59.05,116.98"
    stroke="#ec5436" fill="none" stroke-width="2" stroke-linecap="round" />
  <polyline
    points="66.27,99.86 66.48,99.86 66.68,99.65 66.89,99.65 67.30,99.45 67.51,99.45 67.92,99.24 68.33,99.24 69.16,98.83 69.78,98.62 69.98,98.41 70.40,98.21 70.60,98.21 70.81,98.00 71.43,98.00 71.63,97.79 76.59,97.79 76.79,98.00 77.00,98.00 77.20,98.21 77.62,98.21 77.62,98.41 77.82,98.41 78.03,98.62 78.24,98.62 78.85,99.24 79.06,99.24 79.06,99.45 79.27,99.45 79.68,99.86 79.89,99.86 80.09,100.06 80.09,100.27 80.30,100.27 80.71,100.68 80.71,100.89 80.92,100.89 81.33,101.30 81.33,101.51 81.54,101.51 81.54,101.72 81.74,101.72 81.74,101.92 81.54,101.92 81.54,102.13 81.33,102.13 81.33,102.33 81.12,102.33 81.12,102.54 80.92,102.54 80.51,102.95 80.51,103.16 71.84,103.16 71.63,102.95 71.01,102.95 70.81,102.75 70.60,102.75 70.19,102.54 69.98,102.54 69.57,102.13 69.36,102.13 69.16,101.92 68.95,101.92 68.75,101.72 68.54,101.72 68.33,101.51 68.13,101.51 67.92,101.30 67.71,101.30 67.51,101.10 67.30,101.10 67.09,100.89 66.89,100.89 66.68,100.68 66.48,100.68 66.06,100.27"
    stroke="#ec5436" fill="none" stroke-width="2" stroke-linecap="round" />
  <polyline
    points="65.86,84.38 65.44,84.18 64.83,83.97 64.41,83.77 64.00,83.35 63.59,83.15 63.38,82.94 62.56,82.53 62.35,82.32 61.94,82.11 61.32,82.11 60.91,81.91 60.29,81.91 60.08,81.70 58.43,81.70 58.22,81.91 58.02,81.91 57.81,82.11 57.19,82.11 56.99,82.32 56.57,82.53 56.16,82.53 55.33,82.94 55.13,83.15 54.72,83.15 54.72,83.35 54.51,83.56 54.30,83.56 52.24,85.62 52.24,85.83 52.03,86.03 52.03,86.24 51.83,86.65 51.83,86.86 51.62,87.07"
    stroke="#ec5436" fill="none" stroke-width="2" stroke-linecap="round" />
  <polyline
    points="51.83,87.07 54.30,87.07 54.72,87.27 55.33,87.27 55.75,87.48 59.87,87.48 60.08,87.27 60.49,87.07 60.70,87.07 61.52,86.65 61.73,86.45 62.14,86.45 62.35,86.24 62.56,86.24 62.97,86.03 63.38,86.03 63.79,85.62 64.00,85.62 64.21,85.42 64.83,85.42 65.03,85.21 65.65,85.21 65.65,85.00 66.06,85.00 66.06,84.80 66.27,84.59"
    stroke="#ec5436" fill="none" stroke-width="2" stroke-linecap="round" />
  <polyline
    points="61.52,69.12 61.52,70.56 61.32,70.97 61.32,71.18 61.11,71.59 61.11,72.01 60.91,72.21 60.70,72.62 60.70,72.83 60.49,73.04 60.29,73.45 59.67,74.07 59.46,74.48 58.84,75.10 58.64,75.51 58.22,75.72 57.81,76.13 57.40,76.34 57.19,76.75 56.78,76.96 56.57,76.96 56.16,77.16 55.95,77.37 53.89,77.37 53.48,76.96 53.27,76.96 52.86,76.54 52.86,76.34 52.24,75.72 52.24,75.51 52.03,75.31 52.03,73.66 52.45,73.24 52.65,73.24 52.86,72.83 53.27,72.42 53.48,72.42 53.89,72.21 54.30,71.80 54.72,71.59 56.57,69.74 56.78,69.74 57.40,69.12 57.81,68.91 58.02,68.70 58.43,68.70 58.64,68.50 59.05,68.50 59.25,68.29 59.46,68.29 59.87,68.09 60.29,68.09 60.49,67.88 61.11,67.88"
    stroke="#ec5436" fill="none" stroke-width="2" stroke-linecap="round" />
  <polyline
    points="59.46,67.67 59.05,67.67 58.64,67.88 58.02,67.88 57.40,68.09 56.16,68.70 55.75,68.70 55.54,68.91 55.33,68.91 55.13,69.12 54.72,69.12 54.51,69.32 54.10,69.32 53.68,69.74 53.07,70.15 52.24,70.56 51.83,70.56 51.62,70.77 51.21,70.97 48.11,70.97 47.29,70.56 47.08,70.35 46.88,70.35 46.67,70.15 46.67,69.94 46.26,69.53 46.26,69.12 46.05,68.91 46.05,67.67 46.26,67.47 46.26,67.26 46.46,67.26 46.67,66.85 47.08,66.64 47.29,66.02 47.70,65.61 48.11,65.40 48.32,64.99 48.94,64.37 49.15,64.37 49.35,64.17 49.76,64.17 49.97,63.96 50.59,63.96 51.00,63.75 54.10,63.75 54.51,63.96 54.72,63.96 54.72,64.17 56.37,64.17 56.57,64.37 57.19,64.37 57.40,64.58 57.81,64.58 58.02,64.78 58.22,64.78"
    stroke="#ec5436" fill="none" stroke-width="2" stroke-linecap="round" />
  <polyline
    points="58.22,64.78 53.68,64.78 53.07,64.58 52.45,64.17 51.62,63.75 51.41,63.55 51.21,63.55 51.00,63.34 50.80,63.34 50.80,63.13 50.38,62.93 50.38,62.72 49.76,62.10 49.56,61.48 49.35,61.28 49.15,60.86 48.94,60.66 48.94,60.25 48.73,60.04 48.73,59.63 48.53,59.21 48.53,58.18 49.15,57.56 51.21,56.53 51.41,56.32 51.83,56.32 52.24,56.12 53.07,56.12 53.48,55.91 56.16,55.91 56.57,56.32 56.99,56.53 56.99,56.74 57.81,57.56 57.81,57.77 58.02,57.98 58.02,58.39 58.22,58.59 58.22,59.42 58.43,59.42 58.43,59.63 58.64,59.83"
    stroke="#ec5436" fill="none" stroke-width="2" stroke-linecap="round" />
  <polyline
    points="59.05,60.25 58.84,60.04 58.64,59.21 58.22,58.39 58.02,58.18 58.02,57.77 57.81,57.56 57.40,56.74 57.40,56.32 56.99,55.50 56.99,52.40 57.40,51.58 57.40,51.37 57.60,50.96 57.60,50.55 57.81,50.34 58.02,49.93 58.22,49.72 58.22,49.52 59.05,48.69 59.25,48.69 59.46,48.48 60.91,48.48 61.11,48.69 61.52,48.90 61.73,48.90 62.76,49.93 62.76,50.14 62.97,50.14 62.97,50.34 63.17,50.34 63.17,50.75 63.38,50.96 63.38,51.17 63.59,51.37 63.59,51.79 63.79,52.20 63.79,52.61 64.00,53.02 64.00,53.85 64.21,54.06 64.21,56.32 64.41,56.53 64.41,59.01 64.21,59.21 64.21,59.01 64.00,59.01"
    stroke="#ec5436" fill="none" stroke-width="2" stroke-linecap="round" />
  <polyline
    points="64.21,59.42 64.21,56.32 64.41,55.71 64.62,54.67 64.83,54.06 64.83,53.85 65.03,53.23 66.48,51.79 66.89,51.58 67.09,51.37 67.92,50.96 68.13,50.96 68.54,50.75 70.81,50.75 71.01,50.96 71.22,50.96 71.22,51.17 71.43,51.37 71.63,51.37 71.84,51.58 71.84,51.99 72.05,52.40 72.05,56.74 71.63,57.56 71.63,57.77 71.43,58.18 71.01,58.59 70.81,59.01 70.81,59.21 69.16,60.86 68.75,61.07 67.92,61.90 67.71,61.90"
    stroke="#ec5436" fill="none" stroke-width="2" stroke-linecap="round" />
  <polyline
    points="67.71,61.90 76.38,61.90 76.79,62.31 77.00,62.31 77.20,62.51 77.20,62.72 77.41,63.13 77.62,63.34 77.62,63.75 77.82,64.17 78.03,64.37 78.24,64.99 78.24,66.02 76.38,66.02 75.97,66.23 75.55,66.23 74.73,66.64 74.52,66.64 74.11,66.85 70.60,66.85 70.40,66.64 69.78,66.64 69.57,66.43 68.95,66.43 68.75,66.23 68.54,66.23 68.33,66.02 67.92,66.02 67.71,65.82 67.51,65.82"
    stroke="#ec5436" fill="none" stroke-width="2" stroke-linecap="round" />
  <polyline
    points="67.51,65.82 68.54,65.82 68.95,66.02 69.57,66.23 70.19,66.64 71.01,67.05 71.22,67.26 72.46,67.88 73.08,68.50 73.49,68.70 73.70,69.12 74.11,69.32 74.32,69.53 74.52,69.94 74.52,70.15 74.73,70.35 74.73,71.80 74.52,72.01 74.52,72.21 74.32,72.42 74.32,72.62 74.11,72.83 74.11,73.24 73.90,73.24 73.90,73.45 72.25,73.45 71.84,73.66 67.92,73.66 67.71,73.45 67.51,73.45 66.68,72.62 66.48,72.62 66.48,72.42 66.27,72.21 66.27,72.01 65.65,71.39 65.65,71.18 65.44,70.97 65.44,70.56 65.24,70.56 65.24,70.35 65.03,70.15 65.03,69.74 64.83,69.53 64.83,69.32 64.62,69.32 64.62,68.29"
    stroke="#ec5436" fill="none" stroke-width="2" stroke-linecap="round" />
</svg>