<svg xmlns="http://www.w3.org/2000/svg" viewBox="0 0 128 160" width="128" height="160">
  <polyline
    points="17.78,105.64 21.09,105.64 22.12,105.43 23.56,105.43 24.59,105.22 28.93,104.60 31.20,104.40 32.64,104.40 34.08,104.19 35.94,103.98 37.80,103.57 39.86,103.37 41.51,103.16 43.57,102.95 45.43,102.75 47.49,102.54 58.43,102.54 60.08,102.95 61.94,103.16 63.59,103.37 65.44,103.57 67.30,103.98 70.40,104.40 72.46,104.60 74.32,104.81 76.38,105.02 78.03,105.43 79.47,105.64 80.71,105.84 82.77,106.25 84.01,106.67 85.25,106.87 86.08,107.08 87.11,107.29 87.93,107.70 88.76,107.90 89.38,107.90 90.00,108.11 90.41,108.32 90.62,108.32 90.82,108.52 92.47,108.52 93.09,108.73 95.36,108.73 95.77,108.94 96.80,108.94 97.42,109.14 98.04,109.14 98.66,109.35 99.07,109.35 99.49,109.56 100.52,109.56 101.14,109.76 101.55,109.76 101.76,109.97 103.61,109.97 104.44,110.17 105.06,110.17 105.47,110.38 106.09,110.38"
    stroke="#ec5436" fill="none" stroke-width="2" stroke-linecap="round" />
  <polyline
    points="38.83,102.33 38.83,98.83 39.04,97.18 39.24,95.73 39.24,93.26 39.45,92.02 39.45,90.37 39.65,89.54 39.65,87.07 39.86,86.65 39.86,82.53 40.07,81.29 40.07,80.67 40.27,79.64 40.27,72.01"
    stroke="#f7b733" fill="none" stroke-width="2" stroke-linecap="round" />
  <polyline points="75.14,103.98 75.14,72.21" stroke="#f7b733" fill="none" stroke-width="2" stroke-linecap="round" />
  <polyline
    points="37.80,72.62 38.21,72.62 38.83,72.21 39.24,71.80 40.07,71.18 41.10,70.35 41.92,69.74 42.54,69.12 43.37,68.50 43.99,67.67 45.43,66.23 46.26,65.82 46.46,65.40 46.88,65.20 47.29,64.78 47.91,64.37 48.53,63.75 48.94,63.13 49.56,62.51 50.18,62.10 50.59,61.48 51.21,61.07 52.03,60.25 52.86,59.83 53.07,59.42 53.68,59.21 54.10,58.80 54.51,58.59 55.95,57.15 56.57,56.74 57.40,56.32 57.60,56.12 58.22,55.71 58.64,55.29 59.05,55.09 60.29,54.26 60.49,54.06 60.91,53.85 61.52,53.23 61.73,53.23 61.94,53.02 61.94,52.82"
    stroke="#f7b733" fill="none" stroke-width="2" stroke-linecap="round" />
  <polyline
    points="79.27,74.69 79.27,74.48 78.85,74.07 78.24,73.24 77.62,72.62 76.79,72.21 76.17,71.59 75.55,71.18 75.14,70.56 74.73,70.35 73.90,69.53 73.70,69.12 73.49,69.12 73.49,68.91 73.08,68.50 72.87,68.09 72.87,67.88 72.46,67.67 72.05,66.85 71.43,66.23 71.22,65.82 70.81,65.40 70.60,64.99 70.19,64.78 69.98,64.58 69.78,64.17 69.36,63.75 69.16,63.34 68.75,62.93 68.33,62.10 68.13,61.90 67.92,61.48 67.71,60.86 67.51,60.45 67.30,60.25 67.09,59.83 66.48,59.21 66.48,59.01 66.27,58.59 66.06,58.39 65.86,57.98 65.44,57.77 65.44,57.56 65.24,57.36 65.03,57.36 64.83,57.15 64.83,56.94 64.62,56.94 64.62,56.74 64.41,56.53 64.41,56.12 64.21,56.12 64.00,55.71 63.59,55.29 63.59,54.88 63.38,54.88 62.76,54.26 62.56,54.26 62.56,54.06 62.35,54.06 62.35,53.85 62.14,53.85 62.14,53.64 61.94,53.64 61.94,53.44 61.73,53.23 61.73,53.02"
    stroke="#f7b733" fill="none" stroke-width="2" stroke-linecap="round" />
  <polyline
    points="41.92,68.09 41.92,61.48 42.13,61.28 42.13,59.21 42.54,59.21 42.54,59.42 42.75,59.42 42.75,59.63 46.05,59.63 46.05,63.34 45.84,63.34 45.84,63.55"
    stroke="#f7b733" fill="none" stroke-width="2" stroke-linecap="round" />
  <polyline
    points="52.24,101.10 52.24,92.02 52.45,91.61 52.45,91.19 52.65,90.57 52.65,89.75 52.86,88.72 52.86,88.10 53.07,87.07 53.48,85.42 53.48,84.80 53.68,84.18 53.68,83.77 53.89,83.56 53.89,82.11 54.10,82.32 54.51,82.53 56.16,82.53 56.57,82.73 57.40,82.73 57.81,82.94 58.22,82.94 58.64,83.15 58.84,83.35 59.46,83.35 59.87,83.56 60.49,83.56 60.49,95.94 60.70,96.35 60.70,97.18 60.91,97.59 60.91,101.92"
    stroke="#f7b733" fill="none" stroke-width="2" stroke-linecap="round" />
  <polyline points="57.81,93.87" stroke="#f7b733" fill="none" stroke-width="2" stroke-linecap="round" />
  <polyline points="57.60,94.49 57.60,93.26 56.57,93.26 56.57,93.87 56.78,94.08 57.19,94.08" stroke="#f7b733"
    fill="none" stroke-width="2" stroke-linecap="round" />
  <polyline
    points="64.00,73.24 64.00,82.53 64.21,82.53 64.21,82.73 64.41,82.73 64.83,82.94 65.24,82.94 65.65,83.15 65.86,83.15 66.48,83.35 66.68,83.56 67.09,83.77 70.81,83.77 71.01,83.56 71.01,83.35 71.22,83.15 71.22,81.91 71.43,81.50 71.43,81.08 71.63,80.67 71.63,80.26 72.05,79.43 72.05,78.81 72.25,78.40 72.25,77.16 72.46,76.75 72.46,73.04 70.40,73.04 70.19,72.83 64.41,72.83 64.41,73.04 64.00,73.04 63.79,73.24 63.59,73.24"
    stroke="#f7b733" fill="none" stroke-width="2" stroke-linecap="round" />
  <polyline points="68.33,73.04 68.33,81.50 68.13,81.50 68.13,82.32 67.92,82.53 67.92,83.15 67.71,83.15"
    stroke="#f7b733" fill="none" stroke-width="2" stroke-linecap="round" />
  <polyline points="64.83,78.19 67.92,78.19 68.13,77.99 71.63,77.99 71.84,78.19 71.63,78.19" stroke="#f7b733"
    fill="none" stroke-width="2" stroke-linecap="round" />
  <polyline
    points="42.34,53.85 42.34,48.07 42.75,47.45 43.78,46.42 44.61,45.18 45.23,44.77 45.43,44.36 45.43,44.15 45.64,43.95 45.64,43.53 45.02,42.91 44.61,42.71 43.99,42.50 43.57,42.09 42.96,41.88 42.13,41.68 40.89,41.26 40.48,41.06 39.86,40.85 39.24,40.85 38.62,40.64 38.21,40.44 37.59,40.44 36.77,40.23 35.73,40.03 35.12,40.03 34.70,39.82 32.43,39.82 32.43,38.58"
    stroke="#f7b733" fill="none" stroke-width="2" stroke-linecap="round" />
</svg>