<svg xmlns="http://www.w3.org/2000/svg" viewBox="0 0 128 160" width="128" height="160"><polyline points="20.26,87.89 20.67,87.27 21.70,86.03 22.32,84.80 23.15,83.35 23.77,82.11 24.39,80.67 25.01,79.64 25.83,78.61 26.45,77.58 27.28,76.34 28.10,75.31 29.34,73.86 30.16,72.83 30.78,71.59 31.61,70.77 32.64,68.70 33.05,67.67 33.46,66.85 33.88,65.82 34.29,64.99 35.53,62.93 36.77,61.07 37.18,60.04 37.59,59.42 38.42,57.77 38.83,57.15 39.24,56.12 39.65,55.50 40.27,54.47 40.89,53.64 41.51,52.40 42.34,51.17 42.96,50.34 43.78,49.31 44.61,47.66 45.02,47.45 45.23,47.04 45.84,46.42 46.26,45.80 47.49,43.74 48.11,42.50 48.94,41.26 49.35,40.23 49.97,39.41 50.80,37.76 51.21,37.14 52.03,37.96 52.65,38.38 53.07,38.99 56.37,42.30 57.40,43.53 57.81,43.95 59.05,45.60 59.46,46.42 60.08,47.04 60.49,47.87 61.11,48.69 61.73,49.31 62.35,50.34 63.38,51.58 64.00,52.40 64.62,53.02 65.03,53.85 65.65,54.47 66.27,55.29 67.09,56.53 67.71,57.15 68.13,57.77 68.75,58.59 69.16,59.01 69.57,59.63 72.46,62.51 72.67,62.93 72.87,63.13 73.08,63.13 73.28,63.34 73.28,63.55 73.49,63.55 73.90,63.96" stroke="#ec5436" fill="none" stroke-width="2" stroke-linecap="round" /><polyline points="39.04,57.98 39.65,57.98 40.27,58.18 40.69,58.18 41.10,58.39 41.51,58.39 41.72,58.59 45.02,58.59 45.64,58.18 47.08,56.74 47.29,56.74 47.49,56.53 47.49,56.32 47.70,56.32 47.91,56.12 48.32,56.12 48.73,56.53 48.94,56.94 49.35,57.36 49.56,57.77 49.97,58.39 50.38,59.21 51.62,60.45 52.03,60.66 52.24,60.86 52.65,60.86 53.48,61.28 58.43,61.28 60.91,60.66 61.32,60.45 62.14,60.25 62.56,60.04 62.76,59.83 63.17,59.63 63.59,59.63 64.00,59.21 64.41,59.01 65.24,58.18 65.65,58.18 65.86,57.98 65.86,57.77 66.06,57.77 66.06,57.56 66.27,57.56 66.48,57.36 66.68,57.36 66.68,57.15" stroke="#ec5436" fill="none" stroke-width="2" stroke-linecap="round" /><polyline points="65.44,77.37 65.44,77.16 66.06,76.54 66.89,75.93 67.92,74.69 68.54,74.07 69.57,72.83 70.19,72.01 70.60,71.18 71.43,70.35 72.05,69.53 72.67,68.91 73.28,68.09 73.70,67.47 74.32,66.64 74.52,66.23 75.14,65.61 75.35,64.99 75.76,64.17 76.38,63.55 77.62,61.07 77.82,60.45 78.44,59.83 78.65,59.42 79.06,59.01 79.47,58.39 79.68,57.98 80.30,57.36 81.95,54.88 82.36,54.67 82.77,53.85 83.19,53.44 83.60,52.82 84.01,52.61 84.43,51.99 84.63,51.58 85.04,51.17 85.66,50.34 86.08,49.72 86.49,49.31 87.31,48.07 87.52,47.45 88.14,46.63 88.55,45.80 89.79,44.15 90.62,42.91 91.23,42.30 91.65,41.47 92.27,40.85 93.50,38.99 93.92,38.58 94.74,37.34 95.36,36.72 95.77,36.11 96.19,35.69 96.19,36.31 96.60,36.93 96.80,37.55 97.01,38.58 97.22,39.20 97.63,39.82 98.04,41.06 98.66,42.30 99.07,42.71 100.11,44.77 100.72,45.39 100.93,45.80 100.93,46.01 101.55,46.63 101.55,47.04 101.96,47.25 102.17,47.66 102.38,48.28 103.61,50.14 103.82,50.96 104.23,51.79 104.64,52.40 105.06,53.64 105.47,54.47 105.88,55.09 106.09,55.91 106.50,56.32 106.71,56.94 107.12,57.77 107.53,59.01 107.95,59.42 108.15,60.04 108.56,60.66 109.18,61.90 109.39,62.51 109.80,63.13 110.22,63.96 110.63,64.37 110.83,64.99 111.25,65.82 111.45,66.64 112.28,68.29 112.28,68.50 112.48,68.70 112.48,68.91 112.69,69.12 113.52,70.77 113.72,70.97 113.72,71.39 114.34,72.01 114.75,72.83 115.37,73.45 115.58,73.86 115.79,74.07 115.99,74.48 116.20,74.69 116.20,75.10 116.61,75.51 116.61,75.72 116.82,75.93 116.82,76.13 117.02,76.13 117.02,76.34 117.23,76.34 117.23,76.54 117.44,76.75 117.44,76.96 117.64,76.96 117.64,77.16 117.85,77.16 118.26,77.58 118.47,77.58 118.67,77.78" stroke="#ec5436" fill="none" stroke-width="2" stroke-linecap="round" /><polyline points="81.33,56.94 82.16,56.94 82.77,57.15 83.60,57.36 84.01,57.36 84.43,57.56 84.84,57.56 85.04,57.77 85.46,57.77 85.66,57.98 88.14,57.98 88.96,57.56 89.17,57.56 89.38,57.36 89.58,57.36 89.58,57.15 89.79,56.94 89.79,56.74 90.00,56.53 90.20,56.53 90.20,56.32 91.03,56.32 92.68,57.98 92.68,58.18 92.88,58.39 93.09,58.39 93.09,58.59 93.71,58.59 93.92,58.80 96.19,58.80 96.39,59.01 97.84,59.01 98.25,58.59 98.46,58.59 98.66,58.39 98.87,58.39 99.07,58.18 99.28,58.18 99.69,57.77 99.69,57.56 99.90,57.56 99.90,57.36 100.31,57.36 100.72,57.77 101.14,57.98 101.96,58.80 102.17,58.80 102.58,59.21 102.79,59.21 103.20,59.42 104.44,59.42 104.64,59.21 105.06,59.21 105.06,59.01 105.68,59.01 105.68,58.80 106.09,58.80 106.30,58.59 106.71,58.59 106.71,58.39" stroke="#ec5436" fill="none" stroke-width="2" stroke-linecap="round" /><polyline points="36.77,92.64 35.12,92.64 34.29,92.84 32.64,93.46 31.81,93.87 30.78,94.49 30.16,94.70 28.93,95.53 28.51,95.73 28.10,96.14 27.48,96.56 25.42,98.62 25.01,99.24 24.39,100.06 24.18,100.68 23.77,101.10 23.36,101.92 23.15,102.75 22.74,103.57 22.32,104.60 21.91,106.05 21.91,106.87 21.70,107.70 21.70,109.76 22.94,111.00 23.77,111.41 24.39,112.03 25.21,112.44 25.62,112.86 26.04,112.86 26.04,113.06 26.45,113.27 26.86,113.68 27.69,114.09 28.10,114.51 28.72,114.71 29.75,114.71 31.40,115.13 33.26,115.74 34.08,115.95 35.32,116.36 36.35,116.78 37.38,117.40 38.42,117.81 42.13,119.05 44.61,119.66 45.64,119.87 47.08,120.08 47.91,120.28 49.35,120.28 50.38,120.49 54.51,120.49 55.75,120.70 57.40,120.90 58.84,120.90 60.08,121.32 60.91,121.32 61.94,121.73 62.97,121.93 64.62,122.35 65.65,122.76 67.09,123.38 67.92,123.58 68.95,123.79 69.36,124.00 72.46,124.62 75.35,125.03 76.59,125.24 85.25,125.24 86.08,124.82 87.11,124.62 87.93,124.20 88.55,124.00 89.38,123.58 89.79,123.17 90.41,122.97 90.62,122.76 91.03,122.55 91.23,122.35 91.65,122.14 92.47,121.93 92.88,121.52 93.50,121.32 93.92,121.11 94.54,120.90 94.74,120.70 95.36,120.70 95.77,120.49 96.39,120.28 98.04,119.46 98.66,119.25 99.28,119.25 99.49,119.05 100.11,118.84 100.52,118.63 101.14,118.22 101.55,118.01 101.76,117.81 102.17,117.60 102.99,116.78 102.99,116.57 103.61,115.95 103.82,115.54 104.03,115.33 104.03,115.13 104.23,114.92 104.44,114.51 104.85,114.09 104.85,113.89 105.68,113.06 105.68,112.65 105.88,112.24 106.09,112.03 106.30,111.62 106.30,111.41 106.50,111.21 106.50,111.00 106.91,110.17 107.12,109.56 107.12,109.14 107.33,108.94 107.53,108.52 107.53,107.70 107.74,107.29 107.74,106.25 107.95,105.22 107.95,104.60 108.15,103.78 108.15,101.92 107.95,101.72 107.74,101.30 107.53,101.30 107.53,100.89 107.12,100.48 106.50,99.65 105.88,98.62 105.06,97.59 104.03,96.35 102.79,95.53 102.17,94.70 100.93,93.67 99.90,92.84 99.07,92.43 96.60,90.78 94.54,89.75 93.71,89.13 92.88,88.92 92.06,88.51 91.03,88.30 90.20,87.89 88.96,87.69 88.14,87.48 86.90,87.27 86.28,87.27 84.63,87.07 83.39,86.86 82.36,86.86 81.12,86.65 79.06,86.24 67.92,86.24 66.06,86.65 64.83,87.07 62.76,87.48 62.14,87.69 58.43,87.69 57.60,87.89 56.16,87.89 55.33,88.10 54.92,88.30 54.30,88.30 53.89,88.51 53.48,88.51 53.27,88.72 52.45,88.72 52.03,88.92 51.41,88.92 50.59,89.13 49.97,89.34 49.35,89.34 47.70,89.75 47.29,89.95 46.88,89.95 46.26,90.16 45.84,90.16 45.43,90.37 44.19,90.37 43.99,90.57 42.75,90.57 42.54,90.78 39.45,90.78 39.24,90.99 39.04,90.99 38.83,91.19 38.42,91.19 38.00,91.40 37.80,91.61 37.59,91.61 37.59,91.81 37.38,91.81 37.18,92.02 36.97,92.02 36.97,92.22 36.77,92.22 36.35,92.64 36.35,92.84 36.15,92.84" stroke="#ec5436" fill="none" stroke-width="2" stroke-linecap="round" /><polyline points="47.91,104.60 49.76,104.60 49.76,104.40 49.97,104.40 49.97,104.19 50.18,103.98 52.03,103.98 52.86,104.40 55.13,104.40 55.13,104.19 55.33,104.19 55.54,103.98 55.75,103.98 55.95,103.78 56.16,103.78 56.16,103.57 56.37,103.57 56.37,102.95" stroke="#ec5436" fill="none" stroke-width="2" stroke-linecap="round" /><polyline points="63.79,110.38 66.06,110.38 66.48,110.17 67.71,109.35 67.92,109.14 68.33,109.14 68.54,108.94 71.22,108.94 71.63,109.14 71.84,109.14 72.05,109.35 72.87,109.35 73.28,109.56 73.70,109.56 74.11,109.76 74.73,109.76 74.73,109.35 74.11,109.14" stroke="#ec5436" fill="none" stroke-width="2" stroke-linecap="round" /><polyline points="76.59,100.68 79.47,100.68 79.68,100.48 79.68,100.27 79.89,100.27 80.30,100.06 84.43,100.06 84.63,100.27 86.28,100.27 86.49,100.06 87.31,100.06 87.31,99.86" stroke="#ec5436" fill="none" stroke-width="2" stroke-linecap="round" /><polyline points="83.81,84.18 83.81,77.37" stroke="#ec5436" fill="none" stroke-width="2" stroke-linecap="round" /><polyline points="83.81,77.37 83.81,78.19 83.60,78.19 83.60,78.40 83.39,78.40 83.39,78.61 83.19,78.61" stroke="#ec5436" fill="none" stroke-width="2" stroke-linecap="round" /><polyline points="82.98,78.81" stroke="#ec5436" fill="none" stroke-width="2" stroke-linecap="round" /><polyline points="83.81,79.85 83.60,80.05 83.60,80.26 83.39,80.46 83.39,80.67 83.19,80.67 83.19,81.08 82.98,81.08 82.77,81.29 82.77,81.70 82.57,81.91 82.57,82.11" stroke="#ec5436" fill="none" stroke-width="2" stroke-linecap="round" /><polyline points="84.63,77.78 84.43,77.78 84.63,77.99 84.63,78.19 84.84,78.40 84.84,78.61" stroke="#ec5436" fill="none" stroke-width="2" stroke-linecap="round" /><polyline points="84.43,79.23 84.43,79.85 84.63,79.85 84.63,80.05 85.04,80.46 85.04,80.67 85.25,80.67 85.25,81.08 85.46,81.08 85.46,81.29 85.66,81.29 85.87,81.50 86.08,81.50 86.08,81.91 86.28,81.91" stroke="#ec5436" fill="none" stroke-width="2" stroke-linecap="round" /><polyline points="84.43,82.32 84.84,82.32 84.84,82.53 85.25,82.53 85.66,82.94 85.87,82.94 86.08,83.15 86.28,83.15 86.28,83.35" stroke="#ec5436" fill="none" stroke-width="2" stroke-linecap="round" /><polyline points="83.19,78.81 83.19,79.02 82.98,79.02 82.36,79.64 82.16,80.05 81.54,80.67 81.54,80.88 81.33,80.88 81.33,81.08 81.12,81.08" stroke="#ec5436" fill="none" stroke-width="2" stroke-linecap="round" /></svg>