<svg xmlns="http://www.w3.org/2000/svg" viewBox="0 0 128 160" width="128" height="160">
  <polyline
    points="32.85,74.07 32.02,74.07 31.61,73.86 31.20,73.45 30.78,73.24 30.16,72.01 29.75,71.59 29.75,69.12 29.96,68.91 30.16,68.50 30.58,68.09 30.78,67.67 31.20,67.47 31.61,67.05 32.02,66.85 32.23,66.64 33.05,66.23 33.26,66.23 33.88,65.82 34.29,65.82 35.12,65.40 35.53,65.40 35.94,65.20 38.83,65.20 39.04,65.40 39.24,65.40 39.65,65.82 39.65,66.02 39.86,66.23 39.86,66.43 40.07,66.64 40.07,69.94 39.86,70.15 39.86,70.56 39.65,70.77 39.45,71.18 39.45,71.39 39.24,71.59 39.04,72.01 38.83,72.21 38.62,72.21 38.62,72.42 38.21,72.83 38.00,72.83 37.80,73.04 37.38,73.04 36.97,73.45 36.56,73.45 36.15,73.66 35.94,73.86 35.53,73.86 35.32,74.07 33.88,74.07 33.88,74.27 33.46,74.27"
    stroke="#ec5436" fill="none" stroke-width="2" stroke-linecap="round" />
  <polyline
    points="53.07,67.47 52.86,67.47 52.45,67.26 52.03,66.43 51.21,65.82 50.59,64.58 50.59,64.37 50.38,64.17 50.38,63.96 50.18,63.55 50.18,60.04 50.80,59.42 51.62,59.01 52.45,58.18 52.86,57.98 53.07,57.77 53.89,57.36 54.51,56.94 54.72,56.74 55.54,56.32 56.16,56.12 56.37,55.91 56.99,55.71 59.87,55.71 60.49,55.91 60.70,56.12 61.32,56.32 61.73,56.32 62.14,56.53 62.35,56.74 62.97,57.15 64.00,58.18 64.00,58.39 64.21,58.80 64.62,59.21 64.62,59.42 64.83,59.83 65.03,60.04 65.03,60.45 65.24,60.86 65.24,62.93 65.03,63.13 65.03,63.34 64.83,63.55 64.83,63.75 64.62,63.96 64.62,64.17 64.21,64.58 64.21,64.78 63.79,64.99 62.56,66.23 62.14,66.23 62.14,66.43 61.73,66.64 61.32,66.64 61.11,66.85 60.70,67.05 59.67,67.05 59.46,67.26 57.40,67.26 57.19,67.47 56.16,67.47 55.95,67.67 53.89,67.67 53.48,67.88 52.86,67.88"
    stroke="#ec5436" fill="none" stroke-width="2" stroke-linecap="round" />
  <polyline
    points="76.79,63.96 76.79,63.75 76.59,63.34 76.17,62.93 75.55,61.69 75.55,61.28 75.14,60.04 75.14,57.15 75.76,55.91 76.59,55.09 77.00,54.88 77.20,54.67 77.82,54.26 78.03,54.06 78.65,53.85 79.06,53.64 79.27,53.64 79.47,53.44 83.19,53.44 83.39,53.64 83.60,53.64 83.81,53.85 84.01,53.85 84.84,54.26 86.28,55.71 86.28,55.91 86.70,56.74 86.90,56.94 87.31,57.77 87.31,57.98 87.52,58.18 87.52,61.90 87.31,62.10 87.31,62.93 87.11,63.13 87.11,63.55 86.90,63.55 86.90,63.96 86.49,64.37 86.49,64.58 86.08,64.78 85.87,64.99 85.66,64.99 85.66,65.20 85.25,65.20 85.04,65.40 84.63,65.40 84.22,65.61 83.81,65.61 83.60,65.82 83.39,65.82 82.98,66.02 82.77,66.02 82.57,66.23 81.74,66.23 81.54,66.43 80.09,66.43 79.89,66.23 79.47,66.23 79.47,66.02 79.27,66.02 79.06,65.82 78.85,65.82 78.85,65.61 78.65,65.61 78.65,65.40 78.44,65.40 78.44,65.20 78.24,65.20 78.24,64.99 78.03,64.99 78.03,64.78 77.82,64.78 77.82,64.58 77.62,64.58 77.62,64.37"
    stroke="#ec5436" fill="none" stroke-width="2" stroke-linecap="round" />
  <polyline
    points="93.50,72.21 93.50,67.88 93.71,67.47 93.71,67.26 93.92,67.05 93.92,66.85 94.12,66.64 94.33,66.23 94.54,66.02 94.95,65.82 95.15,65.82 95.57,65.61 95.77,65.40 96.60,65.20 97.01,64.99 97.63,64.78 98.04,64.58 98.46,64.58 98.87,64.37 100.31,64.37 100.31,64.58 100.52,64.58 100.93,64.78 101.55,65.40 101.96,65.61 102.79,66.43 102.99,66.85 103.41,67.05 103.61,67.47 103.82,67.67 104.03,68.09 104.23,68.29 104.23,68.50 104.44,68.91 104.44,69.53 104.64,69.94 104.64,72.83 104.44,73.24 102.99,74.69 102.79,74.69 102.58,74.89 102.17,74.89 101.76,75.10 101.14,75.31 100.31,75.31 100.11,75.51 96.19,75.51 96.19,75.31 95.98,75.31 95.77,75.10 95.36,75.10 95.36,74.89 95.15,74.69 94.95,74.69 94.33,74.07 94.12,74.07 94.12,73.86 93.71,73.45 93.50,73.45 93.50,73.24 93.30,73.24 93.30,72.42"
    stroke="#ec5436" fill="none" stroke-width="2" stroke-linecap="round" />
  <polyline
    points="62.14,75.31 55.75,75.31 54.92,75.51 54.30,75.72 53.89,75.72 53.27,75.93 53.07,76.13 52.03,76.34 51.62,76.34 50.80,76.54 48.32,78.19 47.91,78.40 47.49,78.81 46.88,79.02 46.67,79.43 45.43,80.05 44.61,80.88 43.99,81.29 43.16,81.70 42.96,81.91 42.34,82.32 42.13,82.73 41.72,82.94 41.10,83.35 40.89,83.77 40.69,83.97 40.69,84.18 40.48,84.38 40.48,84.59 40.27,85.00 40.27,85.62 40.07,86.03 39.86,86.65 39.86,87.07 39.65,87.48 39.65,90.16 39.86,90.37 39.86,90.57 40.48,91.81 40.48,92.43 40.89,93.26 41.10,93.87 41.30,94.29 41.72,94.70 42.13,95.53 42.34,96.14 43.37,97.18 43.57,97.59 44.81,98.83 45.23,98.83 45.64,99.24 46.05,99.45 46.67,99.86 47.08,100.27 48.32,101.10 49.35,101.72 49.97,102.13 50.80,102.54 51.83,103.37 52.24,103.57 52.65,103.98 53.27,104.19 53.48,104.40 53.89,104.60 54.10,105.02 54.30,105.22 55.54,105.84 55.75,106.25 56.16,106.46 56.78,106.67 57.40,106.67 58.02,107.08 58.84,107.29 59.46,107.49 60.29,107.70 61.32,107.90 62.14,107.90 62.76,108.11 63.59,108.32 64.21,108.52 65.24,108.52 65.86,108.73 66.27,108.73 66.68,108.94 67.30,108.94 67.71,109.14 71.43,109.14 72.25,108.94 72.67,108.94 73.08,108.73 73.49,108.73 73.70,108.52 74.11,108.32 74.32,108.11 74.73,108.11 74.93,107.90 75.35,107.70 75.55,107.49 75.76,107.49 75.97,107.29 76.38,107.08 76.59,107.08 76.79,106.87 77.20,106.67 77.41,106.46 77.82,106.25 78.24,105.84 78.65,105.64 79.47,104.81 79.68,104.40 80.09,103.98 80.30,103.57 80.51,103.37 80.92,102.75 81.33,102.33 81.54,101.92 81.54,101.72 81.74,101.51 81.74,101.30 81.95,101.10 82.16,100.68 82.16,100.48 82.36,100.06 82.57,99.86 82.57,99.65 83.39,98.00 83.39,97.59 83.60,97.18 83.81,96.97 84.01,96.56 84.01,96.14 84.22,95.94 84.22,95.73 84.43,95.53 84.43,95.32 84.63,95.11 84.63,93.87 84.84,93.67 84.84,88.30 84.63,87.89 84.63,87.69 84.22,86.86 84.01,86.24 83.81,85.83 83.60,85.21 83.39,84.80 82.98,84.38 82.57,83.77 81.95,83.15 81.54,82.94 80.71,82.11 80.30,81.91 79.68,81.29 79.06,80.88 78.65,80.67 78.44,80.46 77.62,80.05 77.41,79.85 76.17,79.23 75.97,79.02 75.55,78.81 75.35,78.61 74.93,78.40 74.73,78.40 74.32,78.19 74.11,77.99 72.87,77.37 72.46,77.37 71.22,76.75 70.81,76.75 70.60,76.54 70.40,76.54 70.19,76.34 69.78,76.34 69.36,75.93 68.95,75.93 68.75,75.72 68.54,75.72 68.33,75.51 67.71,75.51 67.51,75.31 66.89,75.31 66.89,75.10 66.06,75.10 65.86,74.89 61.94,74.89 61.94,75.10 61.11,75.10"
    stroke="#ec5436" fill="none" stroke-width="2" stroke-linecap="round" />
</svg>