<svg xmlns="http://www.w3.org/2000/svg" viewBox="0 0 128 128" width="128" height="128">
  <polyline
    points="0.87,93.67 7.06,93.67 9.12,93.46 12.83,93.26 15.31,93.05 17.37,93.05 19.44,92.84 21.29,92.84 25.01,92.43 26.66,92.43 28.31,92.22 30.16,92.22 33.46,92.02 35.73,91.81 41.10,91.81 43.99,91.61 46.67,91.40 48.94,90.99 50.18,90.57 51.41,90.37 54.51,90.37 57.81,89.95 60.29,89.54 63.17,89.34 66.06,88.92 68.75,88.51 73.28,88.51 75.35,88.30 81.12,88.30 83.60,88.51 86.08,88.92 90.62,90.16 91.85,90.57 92.88,90.78 93.50,90.99 102.17,90.99 104.44,91.40 107.12,92.02 109.60,92.64 110.83,93.05 111.87,93.26 112.69,93.46 113.10,93.46 114.34,93.87 115.17,94.08 116.20,94.49 117.02,94.70 117.64,94.91 118.06,95.11 118.47,95.11 118.88,95.53 119.50,95.53 119.91,95.73 120.12,95.73 120.74,95.94 121.15,95.94 121.77,96.14 122.39,96.14 123.63,96.56 124.66,96.56 125.07,96.76 127.96,96.76"
    stroke="#ec5436" fill="none" stroke-width="2" stroke-linecap="round" />
  <polyline
    points="34.08,90.99 34.08,87.89 34.29,87.07 34.29,85.83 34.50,85.21 34.70,84.18 34.91,83.56 34.91,83.15 35.12,82.53 35.32,82.11 35.73,80.88 36.35,79.85 36.77,79.23 37.38,77.99 38.62,76.34 39.45,75.31 40.48,74.48 41.51,73.24 42.75,72.21 44.81,70.15 46.05,69.12 47.70,67.67 48.94,66.64 49.97,66.02 51.00,65.20 52.03,64.78 52.65,64.37 53.48,64.17 54.10,63.75 54.92,63.55 55.75,63.55 56.99,63.34 61.94,63.34 62.76,63.55 63.59,63.55 64.41,63.75 65.65,64.17 66.27,64.58 67.09,64.78 67.71,65.20 68.33,65.40 70.19,66.64 70.60,67.05 71.01,67.67 71.84,68.29 72.25,68.70 72.87,69.12 73.28,69.74 73.90,70.15 74.11,70.56 74.52,70.97 74.93,71.59 75.35,72.01 75.76,73.04 76.17,73.86 76.38,74.48 77.20,75.72 78.03,77.37 78.03,77.78 78.24,78.19 78.44,78.40 78.44,79.02 78.65,79.43 78.85,79.64 78.85,80.46 79.06,80.67 79.06,81.08 79.27,81.50 79.27,81.91 79.47,82.32 79.47,82.94 79.68,83.15 79.68,83.56 79.89,83.97 79.89,84.80 80.09,85.00 80.09,87.27"
    stroke="#ec5436" fill="none" stroke-width="2" stroke-linecap="round" />
  <polyline points="29.34,82.11 25.21,82.11 23.77,81.70 21.91,81.29 20.47,80.88 19.85,80.67 19.02,80.46 16.13,80.46"
    stroke="#ec5436" fill="none" stroke-width="2" stroke-linecap="round" />
  <polyline
    points="34.50,72.83 33.67,72.83 33.26,72.42 32.85,72.21 32.64,72.21 32.23,72.01 31.81,72.01 31.81,71.80 31.61,71.80"
    stroke="#ec5436" fill="none" stroke-width="2" stroke-linecap="round" />
  <polyline
    points="40.69,66.23 40.48,66.02 39.65,65.40 38.62,64.58 36.56,63.13 35.12,62.10 33.05,60.86 32.23,60.45 31.40,59.63 30.99,59.42 30.58,59.01 30.58,58.80 30.37,58.59 30.16,58.59 30.16,58.39 29.96,58.39 29.96,58.18"
    stroke="#ec5436" fill="none" stroke-width="2" stroke-linecap="round" />
  <polyline
    points="48.32,60.25 48.32,60.04 47.91,59.63 47.70,59.21 47.29,58.80 46.88,58.80 46.67,58.59 46.46,58.59 46.46,58.39 46.26,58.39 46.05,58.18"
    stroke="#ec5436" fill="none" stroke-width="2" stroke-linecap="round" />
  <polyline
    points="56.37,57.56 56.37,51.99 55.95,50.96 55.75,50.14 55.54,49.52 55.54,49.10 55.13,48.69 55.13,48.28 54.92,47.87 54.72,47.66 54.72,47.25 54.51,46.63 54.51,43.74"
    stroke="#ec5436" fill="none" stroke-width="2" stroke-linecap="round" />
  <polyline points="62.35,56.53 62.35,55.50 62.56,55.09 62.56,54.67" stroke="#ec5436" fill="none" stroke-width="2"
    stroke-linecap="round" />
  <polyline
    points="69.57,58.18 69.57,57.98 70.19,57.36 70.40,56.74 71.01,56.12 72.67,53.64 73.28,52.40 74.11,51.58 74.32,50.96 75.35,49.93 75.55,49.93 75.55,49.72"
    stroke="#ec5436" fill="none" stroke-width="2" stroke-linecap="round" />
  <polyline points="76.59,64.37 78.24,64.37 78.44,64.17 79.06,64.17 79.47,63.96 79.68,63.96 79.89,63.75 80.09,63.75"
    stroke="#ec5436" fill="none" stroke-width="2" stroke-linecap="round" />
  <polyline
    points="81.12,72.01 81.33,72.01 82.36,71.39 83.39,70.97 84.63,70.56 85.66,70.15 86.90,69.74 87.93,69.53 88.76,69.12 89.79,68.91 90.41,68.91 91.03,68.70 92.27,68.70 92.88,68.50 94.54,68.50 94.74,68.29 94.74,68.09"
    stroke="#ec5436" fill="none" stroke-width="2" stroke-linecap="round" />
  <polyline points="83.39,77.99 84.43,77.99 85.04,77.78 87.11,77.78" stroke="#ec5436" fill="none" stroke-width="2"
    stroke-linecap="round" />
  <polyline points="84.22,83.15 93.92,83.15 94.54,82.94 95.15,82.94 95.98,82.73 98.25,82.73 98.25,82.53"
    stroke="#ec5436" fill="none" stroke-width="2" stroke-linecap="round" />
</svg>