<svg xmlns="http://www.w3.org/2000/svg" viewBox="0 0 128 160" width="128" height="160">
  <polyline
    points="59.87,126.06 59.87,126.27 59.87,126.89 60.08,127.92 60.08,128.95 60.08,129.77 60.08,130.60 60.08,132.04 60.08,132.66 60.08,133.28 60.08,133.90 60.08,134.52 60.29,135.14 60.49,135.76 60.70,136.38 60.91,136.79 61.11,137.41 61.52,138.03 61.73,138.44 62.14,138.65 62.56,138.85 62.97,139.06 63.59,139.26 64.41,139.47 65.03,139.68 65.86,139.68 66.89,139.68 67.30,139.68 67.92,139.68 68.13,139.47 68.54,139.26 68.75,139.06 69.16,138.65 69.57,138.44 69.98,138.03 70.40,137.41 71.01,136.79 71.43,136.17 71.63,135.76 72.05,135.14 72.25,134.73 72.46,134.11 72.67,133.49 72.87,133.08 73.08,132.46 73.08,132.25 73.28,131.63 73.28,131.01 73.28,130.60 73.28,129.98 73.28,129.36 73.28,128.74 73.28,127.92 73.28,127.30 73.08,126.68 73.08,126.27 73.08,125.85 73.08,125.44 73.08,125.24 73.08,125.03 73.08,124.82 73.08,124.41 73.08,124.20 73.08,124.00 73.08,123.79 73.08,123.58 72.87,123.58 72.87,123.38 72.87,123.17 72.87,122.76 72.87,122.55 72.87,122.14 72.87,121.73 72.87,121.52 72.87,121.11 72.87,120.49 72.87,120.28 72.87,120.08 72.87,119.66 72.87,119.66 72.87,119.46 72.87,119.25 72.87,119.05 72.87,118.84 72.87,118.63 72.87,118.63 72.87,118.43 72.87,118.43 72.87,118.22 72.87,118.22 72.87,118.22 72.87,118.22 72.87,118.22 73.08,118.22 73.08,118.22 73.28,118.43 73.49,118.43 73.90,118.63 74.32,118.63 74.73,118.84 75.14,119.05 75.76,119.05 76.17,119.25 77.00,119.46 77.41,119.66 77.82,119.66 78.24,119.87 78.65,120.08 79.06,120.28 79.47,120.49 80.09,120.49 80.51,120.70 81.12,120.90 81.95,120.90 82.36,120.90 82.77,120.90 83.19,120.90 83.60,120.90 84.01,120.90 84.63,120.90 85.04,120.90 85.46,120.90 86.08,120.90 87.11,120.90 87.93,120.90 88.55,120.90 89.38,120.90 90.00,120.90 90.62,120.90 91.23,120.90 91.85,120.90 92.47,120.90 92.88,120.90 93.50,120.90 93.92,120.90 94.33,120.90 94.33,120.90 94.54,120.90 94.54,120.70 94.74,120.70 94.95,120.70 95.15,120.49 95.36,120.49 95.57,120.28 95.57,120.28 95.57,120.28 95.57,120.28 95.57,120.28 95.36,120.28 95.36,120.28 95.36,120.28 95.36,120.28 95.15,120.28 95.15,120.28 95.15,120.08 95.36,120.08 95.36,120.08 95.36,120.08 95.36,119.87 95.36,119.87 94.95,119.66 94.54,119.25 93.92,118.84 92.88,118.22 91.65,117.60 90.41,116.78 89.58,116.36 88.35,115.54 87.52,115.13 86.90,114.71 86.08,114.09 85.46,113.68 84.63,113.06 83.81,112.24 83.19,111.41 82.36,110.79 81.54,109.97 80.92,109.35 80.09,108.73 79.68,108.32 79.47,108.11 79.27,108.11 79.06,107.90 79.06,107.90 78.85,107.70 78.85,107.70 78.65,107.49 78.44,107.29 78.44,107.08 78.24,106.87 78.24,106.87 78.03,106.67 78.03,106.67 78.03,106.46 77.82,106.46 77.82,106.46 77.82,106.25 77.62,106.25 77.62,106.05 77.41,106.05 77.41,105.84 77.20,105.84 77.20,105.43 76.79,105.22 76.59,104.81 76.38,104.40 76.17,103.98 76.17,103.98 76.17,103.98 76.17,103.98 76.17,103.98 76.17,103.78 76.17,103.78 76.17,103.78 76.38,103.98 76.38,103.98 76.79,104.19 77.82,104.40 78.85,104.40 82.36,105.02 83.60,105.02 84.63,105.22 85.25,105.22 87.31,105.43 88.96,105.43 89.58,105.64 90.00,105.64 90.20,105.64 90.62,105.64 91.03,105.64 91.44,105.64 92.06,105.64 92.47,105.64 92.88,105.64 93.71,105.43 94.33,105.43 94.95,105.22 95.36,105.22 95.98,105.02 96.39,104.81 96.80,104.81 97.01,104.60 97.42,104.60 97.63,104.40 97.84,104.40 98.04,104.19 98.04,104.19 98.04,104.19 98.04,104.19 98.04,103.98 98.04,103.98 98.04,103.98 98.04,103.98 97.84,103.98 97.84,103.98 97.63,103.98 97.42,103.98 97.22,103.98 97.01,103.78 96.39,103.78 95.57,103.57 94.33,103.37 92.88,102.95 91.85,102.54 90.62,102.13 89.79,101.72 88.96,101.30 87.52,100.27 86.70,99.86 85.87,99.45 84.84,98.83 84.01,98.21 83.39,97.59 82.57,97.18 81.95,96.76 81.12,96.35 80.51,95.73 79.27,94.91 78.44,94.29 77.82,93.67 77.20,93.05 76.59,92.22 76.17,91.81 75.55,91.19 75.14,90.57 74.73,89.95 74.52,89.54 74.11,88.92 73.90,88.72 73.70,88.30 73.49,88.10 73.49,87.69 73.28,87.48 73.08,87.27 72.87,87.07 72.67,86.86 72.67,86.86 72.87,86.86 73.70,86.86 74.52,87.07 75.55,87.27 76.38,87.48 77.41,87.69 78.24,87.89 79.27,88.10 79.89,88.30 80.51,88.30 80.92,88.30 81.74,88.51 82.36,88.51 82.98,88.51 83.81,88.51 84.22,88.51 84.84,88.51 85.66,88.51 86.28,88.51 87.11,88.30 87.73,87.89 88.55,87.69 89.17,87.48 89.58,87.48 90.00,87.27 90.20,87.07 90.62,86.86 90.82,86.86 91.03,86.65 91.03,86.45 91.44,86.45 91.65,86.24 91.65,86.03 91.85,86.03 92.06,86.03 92.06,86.03 92.27,86.03 92.27,86.03 92.27,86.03 92.47,86.03 92.27,86.03 92.27,86.03 91.85,86.03 91.44,86.03 91.23,86.03 90.41,85.62 89.58,85.42 88.35,85.00 87.11,84.38 85.87,83.77 84.63,83.35 83.19,82.94 82.16,82.53 81.33,82.11 80.51,81.50 79.68,80.88 78.85,80.05 78.03,79.23 77.20,78.61 76.17,77.58 75.35,77.16 74.11,76.34 73.49,75.93 72.87,75.51 72.46,75.10 72.05,74.69 71.63,74.27 71.43,73.86 71.22,73.45 71.01,73.04 70.81,72.62 70.81,72.21 70.81,72.01 70.60,71.80 70.60,71.59 70.60,71.18 70.40,70.97 70.40,70.77 70.40,70.56 70.40,70.35 70.40,70.35 70.40,70.35 70.40,70.35 70.40,70.35 70.40,70.56 70.40,70.77 70.60,70.77 70.60,70.97 70.81,70.97 70.81,71.18 71.01,71.18 71.43,71.39 71.43,71.59 71.84,71.59 72.25,71.80 72.67,71.80 73.08,72.01 73.70,72.21 74.32,72.21 74.93,72.42 75.55,72.62 76.59,72.83 77.00,73.04 77.41,73.04 78.03,73.04 78.44,73.04 79.06,73.04 79.68,73.04 80.30,73.04 80.71,73.04 81.33,73.04 81.74,73.04 81.95,73.04 82.16,72.83 82.16,72.83 82.36,72.83 82.36,72.83 82.57,72.83 82.57,72.83 82.77,72.83 82.98,72.83 83.39,72.62 83.60,72.62 84.01,72.62 84.43,72.42 84.84,72.42 85.04,72.42 85.25,72.42 85.25,72.42 85.46,72.42 85.46,72.42 85.46,72.21 85.66,72.21 85.87,72.21 86.08,72.01 86.08,72.01 86.28,72.01 86.49,71.80 86.49,71.80 86.28,71.80 86.28,71.59 86.08,71.59 85.87,71.39 85.46,70.97 84.84,70.56 84.01,69.94 83.19,69.12 82.36,68.09 81.33,67.26 80.09,66.23 79.27,65.61 78.44,64.99 77.82,64.37 77.00,63.75 76.38,63.13 75.55,62.10 75.14,61.28 74.32,60.45 73.90,59.42 73.90,59.42 73.90,58.59 73.49,57.98 73.28,57.36 73.08,56.74 72.87,56.32 72.46,55.91 72.05,55.29 71.84,55.09 71.63,54.67 71.43,54.06 71.22,53.44 71.01,52.82 70.81,52.20 70.81,51.58 70.40,50.96 70.19,50.14 69.98,48.90 69.78,48.07 69.36,46.83 69.16,46.22 68.95,45.39 68.75,44.77 68.54,44.36 68.54,44.15 68.33,44.15 68.33,43.95 68.33,43.74 68.13,43.12 67.92,42.30 67.51,41.47 67.30,40.44 67.09,39.82 67.09,39.20 66.89,38.79 66.89,38.38 66.68,37.76 66.68,37.55 66.48,37.34 66.48,37.14 66.48,37.14 66.48,37.14 66.48,37.14 66.48,37.14 66.27,37.14 66.27,37.14 66.27,37.55 66.06,37.55 66.06,37.96 66.06,38.38 65.86,38.99 65.44,39.82 65.24,40.44 64.83,41.68 64.62,42.50 64.41,43.12 64.00,43.74 63.79,44.36 63.59,44.98 63.17,46.01 62.76,46.63 61.94,47.66 61.11,49.10 59.67,51.17 58.64,52.82 57.60,54.47 56.57,55.91 55.75,57.36 54.72,58.80 53.68,59.83 53.07,60.66 52.03,61.48 51.41,62.10 50.59,62.93 50.18,63.34 49.76,63.75 49.15,64.58 48.32,65.40 47.29,66.23 46.46,67.26 45.64,67.88 45.02,68.70 44.40,69.32 43.99,69.74 43.78,69.74 43.57,69.94 43.57,69.94 43.16,69.94 42.96,69.94 42.75,69.94 42.34,69.94 42.13,69.94 41.72,69.94 41.51,70.15 41.10,70.35 41.10,70.35 40.89,70.35 40.89,70.35 40.89,70.56 41.10,70.56 41.10,70.56 41.10,70.56 41.30,70.77 41.51,70.77 41.72,70.97 42.13,70.97 42.34,71.18 42.34,71.39 42.54,71.39 42.75,71.39 42.75,71.59 42.96,71.59 43.16,71.59 43.37,71.59 43.57,71.59 43.78,71.59 44.19,71.59 44.81,71.59 45.64,71.59 46.67,71.59 47.29,71.59 48.11,71.39 48.94,71.18 49.76,70.97 50.38,70.77 51.62,70.15 52.24,69.94 52.86,69.53 53.68,69.12 54.30,68.91 54.92,68.50 55.33,68.29 55.95,68.09 56.37,67.88 56.99,67.88 57.40,67.88 57.60,67.67 58.02,67.67 58.22,67.47 58.64,67.47 58.84,67.47 59.05,67.47 59.05,67.47 59.25,67.47 59.25,67.47 59.05,67.67 58.64,68.09 57.60,69.53 56.57,70.97 55.54,72.21 54.92,73.24 54.10,74.48 53.27,75.51 52.86,76.13 52.24,76.96 51.41,77.78 50.38,78.61 49.15,79.85 48.11,80.67 46.67,81.50 45.23,82.53 43.99,83.15 42.96,83.77 41.92,83.97 40.89,84.38 40.07,84.38 39.24,84.59 38.21,84.80 37.38,85.00 36.56,85.21 35.94,85.42 35.32,86.03 34.50,86.24 34.08,86.65 33.67,87.07 33.26,87.07 33.05,87.27 33.05,87.27 33.05,87.48 33.05,87.48 33.26,87.48 33.46,87.48 33.67,87.48 34.29,87.48 35.12,87.48 35.73,87.48 36.77,87.48 37.59,87.69 38.42,87.89 39.04,87.89 40.48,87.89 41.72,87.89 42.96,87.89 44.40,87.48 45.43,87.27 46.67,86.86 47.91,86.45 49.15,85.83 50.38,85.42 51.21,84.80 52.65,84.18 53.27,83.77 53.89,83.56 54.30,83.56 54.72,83.35 54.72,83.35 55.13,83.15 55.13,83.15 55.33,83.15 55.75,83.15 55.95,83.15 56.16,83.15 56.37,83.15 56.37,83.15 56.37,83.15 56.37,83.15 56.16,83.35 55.54,83.97 55.13,84.38 54.30,84.80 53.27,85.62 52.24,86.24 51.00,87.07 49.56,87.69 48.32,88.30 46.26,89.54 45.02,90.16 43.78,90.78 42.75,91.61 41.51,92.22 40.89,92.64 40.07,93.26 39.24,93.67 38.62,94.29 37.80,94.70 36.56,95.53 35.94,95.94 35.32,96.56 34.08,97.18 33.46,97.79 32.64,98.21 31.81,98.83 31.20,99.03 30.58,99.45 29.96,99.65 29.34,99.86 29.13,100.06 29.13,100.06 29.13,100.06 29.13,100.06 28.93,100.06 28.93,100.06 28.93,100.06 28.72,100.06 28.72,100.06 28.93,100.27 28.93,100.27 28.93,100.27 29.13,100.48 29.54,100.68 29.96,100.89 30.37,101.30 30.99,101.72 31.40,102.13 32.02,102.33 32.64,102.75 33.46,102.95 34.50,103.16 35.73,103.37 37.80,103.57 39.24,103.57 40.69,103.57 41.72,103.57 43.37,103.57 44.61,103.57 45.84,103.57 47.08,103.37 47.91,103.37 49.76,102.95 50.80,102.95 51.83,102.54 52.45,102.54 53.27,102.33 53.68,102.33 53.89,102.33 54.10,102.33 54.30,102.33 54.51,102.33 54.72,102.33 55.13,102.33 55.33,102.33 55.54,102.54 55.75,102.54 55.75,102.54 55.75,102.54 55.75,102.54 55.75,102.54 55.54,102.54 55.33,102.75 54.92,102.75 54.10,103.16 53.07,103.78 51.62,104.81 49.76,105.84 47.91,106.87 46.26,107.70 44.40,108.52 43.37,108.94 42.54,109.35 41.72,109.76 40.89,109.97 39.86,110.38 39.04,111.00 38.21,111.82 36.97,112.44 36.35,113.06 34.91,114.09 34.29,114.51 33.67,114.92 33.05,115.54 32.64,115.74 32.23,116.16 32.02,116.36 31.81,116.57 31.81,116.57 31.61,116.78 31.61,116.78 31.61,116.78 31.20,116.78 30.58,116.78 30.58,116.98 30.37,116.98 29.96,117.19 29.75,117.40 29.34,117.81 28.93,118.22 28.51,118.63 28.10,119.05 27.69,119.25 27.48,119.66 27.28,120.08 26.86,120.28 26.66,120.49 26.66,120.90 26.45,120.90 26.66,120.90 26.66,120.90 27.28,120.90 27.89,120.90 28.31,120.90 28.93,120.90 29.54,120.90 30.16,120.90 31.20,120.90 32.23,120.90 33.46,120.90 34.91,121.11 36.97,121.11 38.62,121.11 40.27,121.11 41.72,121.11 42.75,121.11 43.99,121.11 45.43,121.11 46.67,121.11 47.91,121.11 49.15,120.90 51.00,120.49 51.83,120.28 53.07,120.08 54.10,119.66 54.72,119.66 55.33,119.46 55.95,119.25 56.37,119.25 56.78,119.25 56.99,119.25 57.19,119.05 57.40,119.05 57.60,119.05 57.81,119.05 57.81,119.05 58.02,119.05 58.02,119.05 58.02,119.05 58.02,119.46 58.02,119.66 58.22,120.08 58.22,120.08 58.22,120.28 58.43,120.70 58.43,120.90 58.64,121.11 58.64,121.52 58.84,121.73 58.84,121.93 58.84,122.35 59.05,122.55 59.05,122.55 59.05,122.76 59.25,122.97 59.25,123.17 59.46,123.17 59.46,123.38 59.46,123.58 59.67,123.58 59.67,123.79 59.67,124.00 59.67,124.00 59.67,124.20 59.67,124.41 59.67,124.41 59.67,124.62 59.67,124.62 59.67,124.62 59.67,124.62 59.67,124.82 59.67,124.82 59.67,124.82 59.46,124.82"
    stroke="#ec5436" fill="none" stroke-width="2" stroke-linecap="round" />
</svg>